<?xml version="1.0" encoding="UTF-8" standalone="no"?>
<!DOCTYPE svg PUBLIC "-//W3C//DTD SVG 1.1//EN" "http://www.w3.org/Graphics/SVG/1.1/DTD/svg11.dtd">
<svg width="100%" height="100%" viewBox="0 0 271 271" version="1.1" xmlns="http://www.w3.org/2000/svg" xmlns:xlink="http://www.w3.org/1999/xlink" xml:space="preserve" xmlns:serif="http://www.serif.com/" style="fill-rule:evenodd;clip-rule:evenodd;stroke-linejoin:round;stroke-miterlimit:2;">
    <g transform="matrix(1,0,0,1,-72.929723,-496.461625)">
        <path d="M197.47,496.91C272.111,490.871 337.491,546.542 343.426,621.189C349.361,695.841 293.599,761.144 218.941,766.973C144.43,772.79 79.286,717.162 73.363,642.663C67.44,568.16 122.976,502.938 197.47,496.91Z" style="fill-rule:nonzero;"/>
        <path d="M154.389,599.426C155.971,599.392 157.753,599.349 159.196,600.034C165.368,602.966 170.553,618.434 173.234,624.838C177.181,624.177 189.591,621.985 193.185,622.707C195.025,623.84 194.929,623.718 195.756,625.714C193.397,630.962 175.188,632.329 170.543,633.478C166.801,634.404 161.873,618.508 158.102,612.596C157.797,612.117 157.499,612.691 157.208,612.329C158.254,625.251 163.111,632.247 165.828,640.807C173.665,642.203 187.013,641.615 190.451,649.367C193.376,657.327 200.362,688.989 198.934,689.614C197.469,690.257 193.858,689.602 193.858,689.602C193.858,689.602 181.234,662.611 178.858,656.672C167.023,652.43 155.731,656.492 150.541,650.144C147.932,646.954 146.872,641.196 147.045,630.306C147.215,619.579 143.892,605.164 154.389,599.426Z" style="fill:white;fill-rule:nonzero;"/>
        <path d="M251.157,605.67C254.954,596.033 263.444,596.576 266.022,604.383C267.278,608.186 266.787,638.132 266.549,644.083C266.46,646.306 266.689,650.267 264.393,651.204C259.278,653.291 235.86,656.605 235.86,656.605L219.508,689.8L212.818,689.403C212.818,689.403 222.212,654.986 226.654,647.475C228.894,643.689 236.193,644.885 239.473,644.34C258.289,641.214 256.488,639.98 260.209,616.266C260.447,614.749 260.356,614.478 259.339,613.431C256.705,617.09 257.778,634.224 255.313,635.076C249.401,637.119 227.454,643.736 224.423,642.21C221.61,640.794 227.393,635.822 234.994,633.797C239.414,632.62 243.624,631.005 247.954,629.523C249.138,621.832 249.117,610.849 251.157,605.67Z" style="fill:white;fill-rule:nonzero;"/>
        <path d="M139.545,610.109L143.442,610.017C143.442,610.017 144.005,640.587 144.843,647.683C145.865,663.138 167.075,653.096 174.803,660.248C178.366,663.542 186.633,690.8 186.633,690.8L184.154,690.833L171.876,666.983C171.876,666.983 171.311,665.495 170.132,664.252C165.614,662.703 159.781,663.334 154.923,663.499C153.344,667.589 140.119,688.975 140.119,688.975L138.008,689C138.008,689 146.689,666.922 148.928,661.497C145.501,659.476 140.962,656.58 140.226,652.564C139.157,646.728 139.545,610.109 139.545,610.109Z" style="fill:white;fill-rule:nonzero;"/>
        <path d="M271.65,610L274.988,610C274.988,610 276.119,641.475 274.726,653.47C274.311,657.04 268.311,660.364 266.427,661.418C268.927,668.594 274.911,681.544 276.056,688.016C275.319,690.006 275.912,689.118 273.843,690.478L272.317,689.988C268.313,685.787 262.887,669.91 260.266,663.444C256.761,663.371 247.18,663.052 244.234,664.032C241.753,669.831 236.239,689.21 230.459,690.275C229.056,689.461 229.172,689.498 228.508,687.998C228.845,684.814 236.569,667.008 238.313,663.261C242.065,655.203 255.566,658.27 263.325,656.329C267.292,655.338 271.105,646.064 271.105,646.064L271.65,610Z" style="fill:white;fill-rule:nonzero;"/>
        <path d="M154.781,569.706C159.47,568.328 164.538,569.588 168.038,573C171.538,576.413 172.924,581.448 171.666,586.17C170.407,590.894 166.698,594.57 161.964,595.787C154.815,597.626 147.511,593.394 145.551,586.278C143.591,579.161 147.698,571.787 154.781,569.706Z" style="fill:white;fill-rule:nonzero;"/>
        <path d="M252.955,569.681C260.112,567.75 267.479,571.99 269.404,579.149C271.329,586.309 267.083,593.671 259.923,595.591C252.771,597.508 245.418,593.267 243.495,586.117C241.572,578.967 245.806,571.611 252.955,569.681Z" style="fill:white;fill-rule:nonzero;"/>
        <path d="M199.192,607.118L203.722,609.566C203.722,609.566 197.221,620.465 194.522,623.502C191.225,625.169 188.499,627.39 188.523,623.114C191.496,617.572 199.192,607.118 199.192,607.118Z" style="fill:white;fill-rule:nonzero;"/>
    </g>
</svg>
