<?xml version="1.0" encoding="UTF-8" standalone="no"?>
<!DOCTYPE svg PUBLIC "-//W3C//DTD SVG 1.1//EN" "http://www.w3.org/Graphics/SVG/1.1/DTD/svg11.dtd">
<svg width="100%" height="100%" viewBox="0 0 1062 271" version="1.1" xmlns="http://www.w3.org/2000/svg" xmlns:xlink="http://www.w3.org/1999/xlink" xml:space="preserve" xmlns:serif="http://www.serif.com/" style="fill-rule:evenodd;clip-rule:evenodd;stroke-linejoin:round;stroke-miterlimit:2;">
    <g transform="matrix(1,0,0,1,-72.929723,-496.461625)">
        <path d="M197.47,496.91C272.111,490.871 337.491,546.542 343.426,621.189C349.361,695.841 293.599,761.144 218.941,766.973C144.43,772.79 79.286,717.162 73.363,642.663C67.44,568.16 122.976,502.938 197.47,496.91Z" style="fill-rule:nonzero;"/>
        <path d="M154.389,599.426C155.971,599.392 157.753,599.349 159.196,600.034C165.368,602.966 170.553,618.434 173.234,624.838C177.181,624.177 189.591,621.985 193.185,622.707C195.025,623.84 194.929,623.718 195.756,625.714C193.397,630.962 175.188,632.329 170.543,633.478C166.801,634.404 161.873,618.508 158.102,612.596C157.797,612.117 157.499,612.691 157.208,612.329C158.254,625.251 163.111,632.247 165.828,640.807C173.665,642.203 187.013,641.615 190.451,649.367C193.376,657.327 200.362,688.989 198.934,689.614C197.469,690.257 193.858,689.602 193.858,689.602C193.858,689.602 181.234,662.611 178.858,656.672C167.023,652.43 155.731,656.492 150.541,650.144C147.932,646.954 146.872,641.196 147.045,630.306C147.215,619.579 143.892,605.164 154.389,599.426Z" style="fill:white;fill-rule:nonzero;"/>
        <path d="M251.157,605.67C254.954,596.033 263.444,596.576 266.022,604.383C267.278,608.186 266.787,638.132 266.549,644.083C266.46,646.306 266.689,650.267 264.393,651.204C259.278,653.291 235.86,656.605 235.86,656.605L219.508,689.8L212.818,689.403C212.818,689.403 222.212,654.986 226.654,647.475C228.894,643.689 236.193,644.885 239.473,644.34C258.289,641.214 256.488,639.98 260.209,616.266C260.447,614.749 260.356,614.478 259.339,613.431C256.705,617.09 257.778,634.224 255.313,635.076C249.401,637.119 227.454,643.736 224.423,642.21C221.61,640.794 227.393,635.822 234.994,633.797C239.414,632.62 243.624,631.005 247.954,629.523C249.138,621.832 249.117,610.849 251.157,605.67Z" style="fill:white;fill-rule:nonzero;"/>
        <path d="M139.545,610.109L143.442,610.017C143.442,610.017 144.005,640.587 144.843,647.683C145.865,663.138 167.075,653.096 174.803,660.248C178.366,663.542 186.633,690.8 186.633,690.8L184.154,690.833L171.876,666.983C171.876,666.983 171.311,665.495 170.132,664.252C165.614,662.703 159.781,663.334 154.923,663.499C153.344,667.589 140.119,688.975 140.119,688.975L138.008,689C138.008,689 146.689,666.922 148.928,661.497C145.501,659.476 140.962,656.58 140.226,652.564C139.157,646.728 139.545,610.109 139.545,610.109Z" style="fill:white;fill-rule:nonzero;"/>
        <path d="M271.65,610L274.988,610C274.988,610 276.119,641.475 274.726,653.47C274.311,657.04 268.311,660.364 266.427,661.418C268.927,668.594 274.911,681.544 276.056,688.016C275.319,690.006 275.912,689.118 273.843,690.478L272.317,689.988C268.313,685.787 262.887,669.91 260.266,663.444C256.761,663.371 247.18,663.052 244.234,664.032C241.753,669.831 236.239,689.21 230.459,690.275C229.056,689.461 229.172,689.498 228.508,687.998C228.845,684.814 236.569,667.008 238.313,663.261C242.065,655.203 255.566,658.27 263.325,656.329C267.292,655.338 271.105,646.064 271.105,646.064L271.65,610Z" style="fill:white;fill-rule:nonzero;"/>
        <path d="M154.781,569.706C159.47,568.328 164.538,569.588 168.038,573C171.538,576.413 172.924,581.448 171.666,586.17C170.407,590.894 166.698,594.57 161.964,595.787C154.815,597.626 147.511,593.394 145.551,586.278C143.591,579.161 147.698,571.787 154.781,569.706Z" style="fill:white;fill-rule:nonzero;"/>
        <path d="M252.955,569.681C260.112,567.75 267.479,571.99 269.404,579.149C271.329,586.309 267.083,593.671 259.923,595.591C252.771,597.508 245.418,593.267 243.495,586.117C241.572,578.967 245.806,571.611 252.955,569.681Z" style="fill:white;fill-rule:nonzero;"/>
        <path d="M199.192,607.118L203.722,609.566C203.722,609.566 197.221,620.465 194.522,623.502C191.225,625.169 188.499,627.39 188.523,623.114C191.496,617.572 199.192,607.118 199.192,607.118Z" style="fill:white;fill-rule:nonzero;"/>
        <path d="M858.403,595.676C884.242,593.454 907.001,612.55 909.304,638.377C911.606,664.204 892.582,687.031 866.761,689.412C840.83,691.806 817.88,672.678 815.572,646.735C813.257,620.797 832.453,597.908 858.403,595.676ZM862.248,618.385C865.751,618.25 896.097,632.517 899.36,635.095L899.121,636.827C897.438,638.872 895.295,639.277 892.717,640.195C892.717,645.069 892.674,649.943 892.588,654.817C894.529,658.117 899.887,667.198 891.608,667.577C889.943,667.651 888.32,667.038 887.12,665.881C883.342,662.226 887.114,658.503 889.79,656.029C889.606,651.523 890.904,645.149 888.749,642.24C886.514,641.885 886.526,642.356 884.028,643.373C883.177,647.481 884.916,653.366 882.742,656.274C876.38,660.713 850.529,661.497 844.749,656.219C843.971,653.311 844.308,647.316 844.357,644.065C841.136,642.779 828.957,638.64 828.676,635.584C831.884,631.519 856.027,621.097 862.248,618.385Z"/>
        <path d="M862.248,618.385C865.751,618.25 896.097,632.517 899.36,635.095L899.121,636.827C897.438,638.872 895.295,639.277 892.717,640.195C892.717,645.069 892.674,649.943 892.588,654.817C894.529,658.117 899.887,667.198 891.608,667.577C889.943,667.651 888.32,667.038 887.12,665.881C883.342,662.226 887.114,658.503 889.79,656.029C889.606,651.523 890.904,645.149 888.749,642.24C886.514,641.885 886.526,642.356 884.028,643.373C883.177,647.481 884.916,653.366 882.742,656.274C876.38,660.713 850.529,661.497 844.749,656.219C843.971,653.311 844.308,647.316 844.357,644.065C841.136,642.779 828.957,638.64 828.676,635.584C831.884,631.519 856.027,621.097 862.248,618.385ZM849.542,636.167C856.357,636.05 876.257,634.091 880.421,638.885C880.978,641.194 880.984,640.067 880.329,642.4C875.039,643.857 877.237,647.255 880.182,650.103L879.747,650.948C871.034,649.245 856.559,648.627 847.95,651.107C849.383,645.449 849.04,645.125 847.418,639.547C847.069,638.353 848.777,636.963 849.542,636.167ZM890.139,659.905C891.462,659.44 892.919,660.058 893.507,661.332C894.088,662.606 893.605,664.112 892.386,664.81C891.498,665.318 890.396,665.281 889.545,664.712C888.688,664.143 888.229,663.138 888.357,662.122C888.486,661.105 889.172,660.248 890.139,659.905ZM856.382,652.343C862.443,652.215 873.097,651.853 878.614,654.278L878.669,655.172C876.012,656.58 873.74,656.488 870.709,656.752C865.511,657.327 853.534,657.444 848.771,654.927L848.746,654.045C851.201,652.631 853.522,652.662 856.382,652.343ZM863.178,620.828C866.454,622.089 894.381,634.789 895.159,636.026C892.024,637.36 885.864,640.434 883.078,638.732C879.888,631.262 872.112,633.16 864.923,633.313C859.755,633.24 854.581,633.197 849.413,633.178C846.064,635.285 843.854,639.369 842.139,640.054C838.71,638.867 835.3,637.085 832.012,635.505C842.298,630.968 853.02,625.696 863.178,620.828Z" style="fill:white;"/>
        <path d="M863.178,620.828C866.454,622.089 894.381,634.789 895.159,636.026C892.024,637.36 885.864,640.434 883.078,638.732C879.888,631.262 872.112,633.16 864.923,633.313C859.755,633.24 854.581,633.197 849.413,633.178C846.064,635.285 843.854,639.369 842.139,640.054C838.71,638.867 835.3,637.085 832.012,635.505C842.298,630.968 853.02,625.696 863.178,620.828Z"/>
        <path d="M849.542,636.167C856.357,636.05 876.257,634.091 880.421,638.885C880.978,641.194 880.984,640.067 880.329,642.4C875.039,643.857 877.237,647.255 880.182,650.103L879.747,650.948C871.034,649.245 856.559,648.627 847.95,651.107C849.383,645.449 849.04,645.125 847.418,639.547C847.069,638.353 848.777,636.963 849.542,636.167Z"/>
        <path d="M856.382,652.343C862.443,652.215 873.097,651.853 878.614,654.278L878.669,655.172C876.012,656.58 873.74,656.488 870.709,656.752C865.511,657.327 853.534,657.444 848.771,654.927L848.746,654.045C851.201,652.631 853.522,652.662 856.382,652.343Z"/>
        <path d="M890.139,659.905C891.462,659.44 892.919,660.058 893.507,661.332C894.088,662.606 893.605,664.112 892.386,664.81C891.498,665.318 890.396,665.281 889.545,664.712C888.688,664.143 888.229,663.138 888.357,662.122C888.486,661.105 889.172,660.248 890.139,659.905Z"/>
        <path d="M1085.34,597.124C1099.67,596.121 1111.82,598.652 1122.16,609.282C1133.17,620.62 1134.88,632.725 1134.7,647.72L1065.5,647.751C1069.49,668.3 1086.49,675.458 1105.09,667.443C1107.43,667.761 1117.3,676.205 1119.75,678.17C1113.64,682.769 1107.94,686.014 1100.32,687.563C1088.69,690 1076.56,687.649 1066.68,681.048C1056.73,674.3 1049.88,663.867 1047.65,652.055C1042.48,625.316 1058.71,602.149 1085.34,597.124ZM1088.84,614.282C1076.99,616.382 1072.82,620.301 1067.19,630.637L1095.11,630.673L1115.04,630.612C1110.03,618.593 1101.94,613.67 1088.84,614.282Z"/>
        <path d="M583.856,597.154C586.141,596.895 588.438,596.768 590.738,596.773C602.041,596.773 612.868,601.315 620.791,609.378C631.99,620.632 633.76,632.603 633.68,647.666L564.039,647.776C569.602,667.939 584.553,675.844 604.079,667.443C606.184,667.829 616.07,676.132 618.759,678.183C602.73,689.884 582.663,692.792 565.631,681.134C555.69,674.295 548.87,663.787 546.669,651.921C541.905,625.555 556.984,601.67 583.856,597.154ZM587.996,614.3C577.288,615.807 570.565,620.381 566.207,630.631L593.017,630.673L614.013,630.606C608.032,619.162 601.412,613.853 587.996,614.3Z"/>
        <path d="M505.053,562.738L524.071,562.664C524.063,604.133 523.545,646.545 524.107,687.937L505.553,687.79C506.063,657.609 505.531,626.535 505.695,596.211C503.604,600.223 501.154,604.338 498.89,608.283L461.637,672.574C458.255,666.537 454.763,660.567 451.164,654.652C469.442,624.202 487.406,593.56 505.053,562.738Z" style="fill-rule:nonzero;"/>
        <path d="M673.714,610.973C683.958,594.562 702.945,591.635 717.481,605.125C729.488,616.273 727.584,636.57 727.56,651.909L727.48,687.79L709.013,687.875L709.074,642.614C709.209,634.482 710.029,624.747 704.121,618.281C697.545,611.081 687.533,614.558 681.6,620.675C678.435,623.914 676.163,627.912 674.987,632.284C672.728,640.826 673.738,677.246 673.781,688.004C667.572,687.9 661.357,687.839 655.142,687.82C655.216,677.087 654.046,602.091 655.547,597.658L657.292,597.298C662.68,597.24 668.221,597.337 673.622,597.363C673.708,601.899 673.738,606.436 673.714,610.973Z" style="fill-rule:nonzero;"/>
        <path d="M399.319,562.737L418.211,562.68C430.461,583.907 443.072,605.038 455.143,626.327L445.004,643.796C436.102,629.707 426.314,611.587 417.657,596.837L417.58,603.58L417.564,687.913C411.447,687.851 405.329,687.839 399.211,687.87C399.94,646.827 399.198,603.972 399.319,562.737Z" style="fill-rule:nonzero;"/>
        <path d="M759.845,562.702L778.226,562.713L778.306,597.134L795.279,597.439L795.346,614.674L778.244,614.637C778.208,628.892 777.791,643.458 778.526,657.652C779.059,667.853 786.976,670.057 795.383,670.584L795.309,682.046C795.34,685.071 795.787,685.518 794.287,687.379C783.302,691.726 764.174,679.774 761.908,669.922C758.21,653.831 759.79,631.384 759.906,614.711L748.89,614.649L748.848,597.203L759.802,597.269L759.845,562.702Z" style="fill-rule:nonzero;"/>
        <path d="M1006.11,562.707L1024.92,562.6L1024.86,687.93L1005.99,687.839C1006.7,646.784 1006.02,603.919 1006.11,562.707Z" style="fill-rule:nonzero;"/>
        <path d="M949.68,610.852C958.1,597.123 969.801,593.37 984.667,599.9L975.856,614.736C956.054,614.105 949.931,627.631 949.674,645.216L949.607,687.839L931.023,687.845C931.979,659.422 931.103,626.376 931.213,597.494L938.475,597.294C942.112,597.277 945.945,597.402 949.607,597.462L949.68,610.852Z" style="fill-rule:nonzero;"/>
    </g>
</svg>
